<svg width="279" height="189" viewBox="0 0 279 189" fill="none" xmlns="http://www.w3.org/2000/svg">
<rect width="5" height="36.5201" transform="translate(171.156 103.469) rotate(-40.106)" fill="#454451"/>
<rect x="161" y="104.663" width="15" height="15" rx="7.5" transform="rotate(-40.106 161 104.663)" fill="#454451"/>
<path fill-rule="evenodd" clip-rule="evenodd" d="M146.442 0H96.4574C87.9984 1.6 83.9612 10 83 14V85.6497L104.5 130.248L83 149H130.998C135.559 142.928 142.821 139 151 139C159.179 139 166.441 142.928 171.002 149H207V91C196.747 70 174.702 25.2 168.55 14C162.398 2.8 151.248 0 146.442 0ZM141.674 7H100.961C94.0713 8.25638 90.7829 14.8523 90 17.9933V74.2551L114 124H141.674H191V85.5C191 85.5 164.693 26.7879 159.682 17.9933C154.671 9.19866 145.589 7 141.674 7Z" fill="black"/>
<path fill-rule="evenodd" clip-rule="evenodd" d="M129 110H120V165H128.335C128.317 164.594 128.308 164.186 128.308 163.776C128.308 155.526 131.999 148.039 138 142.535V119C138 114.029 133.971 110 129 110Z" fill="black"/>
<path d="M98 88.9747H115C117.761 88.9747 120 91.2132 120 93.9747V165H98V88.9747Z" fill="black"/>
<path fill-rule="evenodd" clip-rule="evenodd" d="M13 164C13 150.193 24.1929 139 38 139C51.8071 139 63 150.193 63 164C63 177.807 51.8071 189 38 189C24.1929 189 13 177.807 13 164ZM22.5 164C22.5 155.44 29.4396 148.5 38 148.5C46.5604 148.5 53.5 155.44 53.5 164C53.5 172.56 46.5604 179.5 38 179.5C29.4396 179.5 22.5 172.56 22.5 164ZM37.5 156C33.3579 156 30 159.358 30 163.5C30 167.642 33.3579 171 37.5 171C41.6421 171 45 167.642 45 163.5C45 159.358 41.6421 156 37.5 156Z" fill="#454451"/>
<path fill-rule="evenodd" clip-rule="evenodd" d="M126 164C126 150.193 137.193 139 151 139C164.807 139 176 150.193 176 164C176 177.807 164.807 189 151 189C137.193 189 126 177.807 126 164ZM135.5 164C135.5 155.44 142.44 148.5 151 148.5C159.56 148.5 166.5 155.44 166.5 164C166.5 172.56 159.56 179.5 151 179.5C142.44 179.5 135.5 172.56 135.5 164ZM150.5 156C146.358 156 143 159.358 143 163.5C143 167.642 146.358 171 150.5 171C154.642 171 158 167.642 158 163.5C158 159.358 154.642 156 150.5 156Z" fill="#454451"/>
<path d="M186 7C186 3.68629 188.686 1 192 1H206C209.314 1 212 3.68629 212 7V11H186V7Z" fill="black"/>
<path d="M202 159H269C274.523 159 279 163.477 279 169H208C204.686 169 202 166.314 202 163V159Z" fill="black"/>
<rect width="10" height="148" transform="translate(202 11)" fill="black"/>
<path fill-rule="evenodd" clip-rule="evenodd" d="M227 12C220.373 12 215 17.3726 215 24V46C215 52.6274 220.373 58 227 58H260C266.627 58 272 52.6274 272 46V24C272 17.3726 266.627 12 260 12H227ZM228 28.9167L231.167 35.25L235.917 32.0833V49.5H251.75V32.0833L256.5 35.25L259.667 28.9167L253.333 21H248.583C248.583 22.2598 248.083 23.468 247.192 24.3588C246.301 25.2495 245.093 25.75 243.833 25.75C242.574 25.75 241.365 25.2495 240.475 24.3588C239.584 23.468 239.083 22.2598 239.083 21H234.333L228 28.9167Z" fill="#454451"/>
<path fill-rule="evenodd" clip-rule="evenodd" d="M215 74C215 67.3726 220.373 62 227 62H260C266.627 62 272 67.3726 272 74V96C272 102.627 266.627 108 260 108H227C220.373 108 215 102.627 215 96V74ZM252.655 73.8731H235.845C235.702 73.8731 235.586 73.9889 235.586 74.1318V99.2417C235.586 99.3842 235.702 99.5 235.845 99.5H242.362C242.497 99.5 242.609 99.3976 242.62 99.2635L243.993 83.2731C244.004 83.1395 244.116 83.0366 244.25 83.0366C244.384 83.0366 244.496 83.1395 244.507 83.2731L245.88 99.2635C245.891 99.3976 246.003 99.5 246.138 99.5H252.655C252.798 99.5 252.914 99.3842 252.914 99.2417V74.1318C252.914 73.9889 252.798 73.8731 252.655 73.8731ZM242.54 71H245.96V73.2346H242.54V71ZM241.582 71H235.586V73.2346H241.582V71ZM246.827 71H252.914V73.2346H246.827V71Z" fill="#454451"/>
<path fill-rule="evenodd" clip-rule="evenodd" d="M215 122C215 115.373 220.373 110 227 110H260C266.627 110 272 115.373 272 122V144C272 150.627 266.627 156 260 156H227C220.373 156 215 150.627 215 144V122ZM230 125C230 124.448 230.448 124 231 124H241C241.552 124 242 124.448 242 125C242 128.506 244.631 131.459 248.002 131.805L248.024 131.808L253.624 132.508C253.632 132.509 253.64 132.51 253.648 132.511C256.122 132.882 258 134.989 258 137.5V139V142C258 142.552 257.552 143 257 143H231C230.448 143 230 142.552 230 142V139V125ZM232 140V141H256V140H248H232ZM249.089 138H256V137.5C256 136.015 254.884 134.724 253.363 134.491L251.546 134.264C251.544 134.265 251.542 134.267 251.54 134.268L250.948 134.762C249.941 135.638 249.309 136.77 249.089 138ZM248.939 133.938C247.901 135.093 247.262 136.501 247.065 138H232V126H240.056C240.511 130.049 243.696 133.369 247.787 133.794L248.939 133.938ZM236 131C235.448 131 235 131.448 235 132C235 132.552 235.448 133 236 133C236.552 133 237 132.552 237 132C237 131.448 236.552 131 236 131ZM233 132C233 130.343 234.343 129 236 129C237.657 129 239 130.343 239 132C239 133.657 237.657 135 236 135C234.343 135 233 133.657 233 132Z" fill="#454451"/>
<path fill-rule="evenodd" clip-rule="evenodd" d="M0 119C0 94.1472 20.1472 74 45 74H98.3289V165H62.9804C62.9934 164.668 63 164.335 63 164C63 150.193 51.8071 139 38 139C24.1929 139 13 150.193 13 164C13 164.335 13.0066 164.668 13.0196 165H0V129.802H86.8491C89.6938 129.802 92 127.496 92 124.651C92 121.806 89.6938 119.5 86.8491 119.5H0V119Z" fill="black"/>
</svg>
