<svg width="119" height="72" viewBox="0 0 119 72" fill="none" xmlns="http://www.w3.org/2000/svg">
<path fill-rule="evenodd" clip-rule="evenodd" d="M70 0H31C13.8792 0 0 13.8792 0 31V70C0 71.1046 0.895426 72 2 72H41C53.4785 72 64.2349 64.6271 69.1507 54H68.0447C63.2009 64.0584 52.9111 71 41 71H2C1.44771 71 1 70.5523 1 70V31C1 14.4315 14.4315 1 31 1H70C70.5523 1 71 1.44772 71 2V7H72V2C72 0.895433 71.1046 0 70 0Z" fill="url(#paint0_linear_8_2)"/>
<path d="M39.256 35.32C37.9547 35.32 36.856 35.2027 35.96 34.968C35.064 34.712 34.3387 34.3707 33.784 33.944C33.2293 33.5173 32.824 33.0373 32.568 32.504C32.312 31.9493 32.184 31.3947 32.184 30.84C32.184 30.2213 32.3227 29.72 32.6 29.336C32.8773 28.9307 33.2507 28.632 33.72 28.44C34.2107 28.248 34.7333 28.152 35.288 28.152C35.3093 29.24 35.4907 30.1893 35.832 31C36.1733 31.8107 36.664 32.44 37.304 32.888C37.9653 33.3147 38.7547 33.528 39.672 33.528C40.9947 33.528 42.0187 33.1973 42.744 32.536C43.4907 31.8533 43.864 30.9573 43.864 29.848C43.864 29.1013 43.6827 28.4613 43.32 27.928C42.9573 27.3947 42.392 26.904 41.624 26.456C40.856 26.008 39.864 25.5387 38.648 25.048C37.6027 24.6213 36.696 24.1627 35.928 23.672C35.16 23.1813 34.5413 22.6587 34.072 22.104C33.6027 21.5493 33.2507 20.9413 33.016 20.28C32.8027 19.5973 32.696 18.84 32.696 18.008C32.696 16.7493 33.0267 15.6613 33.688 14.744C34.3493 13.8053 35.2453 13.0907 36.376 12.6C37.5067 12.088 38.7973 11.832 40.248 11.832C41.6987 11.832 42.904 12.0027 43.864 12.344C44.824 12.664 45.5387 13.1013 46.008 13.656C46.4987 14.2107 46.744 14.8187 46.744 15.48C46.744 16.2053 46.456 16.8027 45.88 17.272C45.304 17.72 44.4507 17.944 43.32 17.944C43.32 17.3253 43.2027 16.6853 42.968 16.024C42.7547 15.3627 42.392 14.808 41.88 14.36C41.3893 13.8907 40.7173 13.656 39.864 13.656C39.2027 13.656 38.6053 13.784 38.072 14.04C37.56 14.2747 37.1547 14.6373 36.856 15.128C36.5573 15.5973 36.408 16.1733 36.408 16.856C36.408 17.56 36.5573 18.1787 36.856 18.712C37.1547 19.2453 37.6773 19.7573 38.424 20.248C39.1707 20.7387 40.2267 21.2613 41.592 21.816C42.9787 22.3707 44.1093 22.968 44.984 23.608C45.88 24.2267 46.5413 24.9413 46.968 25.752C47.416 26.5413 47.64 27.4693 47.64 28.536C47.64 29.9013 47.288 31.096 46.584 32.12C45.9013 33.1227 44.9307 33.912 43.672 34.488C42.4347 35.0427 40.9627 35.32 39.256 35.32ZM56.994 35.32C55.4793 35.32 54.3167 34.9467 53.506 34.2C52.7167 33.4533 52.322 32.152 52.322 30.296V19.896H49.89V18.392C50.466 18.392 51.01 18.2747 51.522 18.04C52.034 17.8053 52.4607 17.5173 52.802 17.176C53.122 16.8133 53.41 16.3653 53.666 15.832C53.922 15.2987 54.1247 14.648 54.274 13.88H56.482V17.848H60.61V19.896H56.482V30.136C56.482 31.1387 56.6633 31.8853 57.026 32.376C57.41 32.8453 57.9647 33.08 58.69 33.08C59.1167 33.08 59.5007 33.0587 59.842 33.016C60.2047 32.952 60.5567 32.8773 60.898 32.792V34.616C60.578 34.7653 60.066 34.9147 59.362 35.064C58.6793 35.2347 57.89 35.32 56.994 35.32ZM71.0985 35.32C68.6452 35.32 66.7038 34.584 65.2745 33.112C63.8665 31.64 63.1625 29.3893 63.1625 26.36C63.1625 23.3733 63.8345 21.144 65.1785 19.672C66.5438 18.2 68.5492 17.464 71.1945 17.464C73.6692 17.464 75.6105 18.2 77.0185 19.672C78.4265 21.144 79.1305 23.3733 79.1305 26.36C79.1305 29.3893 78.4478 31.64 77.0825 33.112C75.7385 34.584 73.7438 35.32 71.0985 35.32ZM71.1625 33.432C72.0798 33.432 72.8052 33.176 73.3385 32.664C73.8932 32.1307 74.2878 31.3307 74.5225 30.264C74.7572 29.1973 74.8745 27.896 74.8745 26.36C74.8745 24.8027 74.7465 23.512 74.4905 22.488C74.2558 21.464 73.8612 20.696 73.3065 20.184C72.7732 19.6507 72.0478 19.384 71.1305 19.384C70.2345 19.384 69.5092 19.6507 68.9545 20.184C68.3998 20.696 68.0052 21.464 67.7705 22.488C67.5358 23.512 67.4185 24.8027 67.4185 26.36C67.4185 27.9173 67.5358 29.2187 67.7705 30.264C68.0265 31.3093 68.4212 32.0987 68.9545 32.632C69.5092 33.1653 70.2452 33.432 71.1625 33.432ZM89.9988 35.32C88.5054 35.32 87.1828 35.032 86.0308 34.456C84.8788 33.88 83.9721 32.952 83.3108 31.672C82.6494 30.3707 82.3188 28.6427 82.3188 26.488C82.3188 24.2053 82.6494 22.4133 83.3108 21.112C83.9934 19.7893 84.9001 18.8507 86.0308 18.296C87.1828 17.7413 88.4734 17.464 89.9028 17.464C91.0974 17.464 92.1428 17.6027 93.0388 17.88C93.9561 18.1573 94.6708 18.5413 95.1828 19.032C95.6948 19.5227 95.9508 20.1093 95.9508 20.792C95.9508 21.2613 95.8334 21.688 95.5988 22.072C95.3854 22.4347 95.0121 22.7227 94.4788 22.936C93.9454 23.1493 93.2201 23.256 92.3028 23.256C92.3028 22.5307 92.2281 21.8693 92.0788 21.272C91.9508 20.6747 91.7161 20.1947 91.3748 19.832C91.0548 19.4693 90.5854 19.288 89.9668 19.288C89.2841 19.288 88.6761 19.5013 88.1428 19.928C87.6308 20.3333 87.2361 21.0587 86.9588 22.104C86.6814 23.1493 86.5428 24.6 86.5428 26.456C86.5428 27.928 86.6921 29.1547 86.9908 30.136C87.2894 31.096 87.7374 31.8213 88.3348 32.312C88.9534 32.8027 89.7641 33.048 90.7668 33.048C91.4708 33.048 92.1108 32.9413 92.6868 32.728C93.2841 32.5147 93.7961 32.2267 94.2228 31.864C94.6708 31.48 95.0121 31.0533 95.2468 30.584C95.4601 30.7333 95.6201 30.9253 95.7268 31.16C95.8548 31.3947 95.9188 31.6613 95.9188 31.96C95.9188 32.4933 95.7054 33.016 95.2788 33.528C94.8521 34.04 94.2014 34.4667 93.3268 34.808C92.4734 35.1493 91.3641 35.32 89.9988 35.32ZM97.7003 35V33.432H98.0523C98.4363 33.432 98.8096 33.3893 99.1723 33.304C99.5349 33.1973 99.8336 32.9947 100.068 32.696C100.324 32.376 100.452 31.9067 100.452 31.288V14.264C100.452 13.6667 100.324 13.2293 100.068 12.952C99.8123 12.6533 99.5029 12.4613 99.1403 12.376C98.7776 12.2907 98.4149 12.248 98.0523 12.248H97.7003V10.68H104.612V23.032C104.612 23.3093 104.602 23.6507 104.58 24.056C104.559 24.4613 104.538 24.8667 104.516 25.272C104.516 25.656 104.506 25.976 104.484 26.232C104.463 26.488 104.452 26.616 104.452 26.616L108.484 22.168C108.804 21.8053 109.05 21.5067 109.22 21.272C109.391 21.016 109.508 20.8027 109.572 20.632C109.658 20.44 109.7 20.2693 109.7 20.12C109.7 19.8427 109.562 19.6507 109.284 19.544C109.007 19.416 108.602 19.352 108.068 19.352V17.848H115.748V19.352C115.386 19.352 115.023 19.416 114.66 19.544C114.298 19.6507 113.935 19.8213 113.572 20.056C113.21 20.2907 112.836 20.5893 112.452 20.952C112.068 21.2933 111.663 21.6987 111.236 22.168L109.124 24.568L113.38 30.904C113.764 31.4587 114.138 31.928 114.5 32.312C114.884 32.6747 115.268 32.952 115.652 33.144C116.036 33.336 116.42 33.432 116.804 33.432H116.9V35H116.452C115.386 35 114.479 34.9787 113.732 34.936C113.007 34.872 112.388 34.744 111.876 34.552C111.386 34.36 110.938 34.072 110.532 33.688C110.127 33.2827 109.711 32.7387 109.284 32.056L106.308 27.384L104.612 28.632V31.32C104.612 31.9387 104.73 32.3973 104.964 32.696C105.22 32.9947 105.53 33.1973 105.892 33.304C106.276 33.3893 106.65 33.432 107.012 33.432H107.3V35H97.7003Z" fill="black"/>
<path d="M31.38 46.7045V46.2845H31.51C31.6633 46.2845 31.8 46.2679 31.92 46.2345C32.0467 46.2012 32.1467 46.1345 32.22 46.0345C32.2933 45.9279 32.33 45.7712 32.33 45.5645V40.7045C32.33 40.4912 32.2933 40.3345 32.22 40.2345C32.1467 40.1345 32.0467 40.0679 31.92 40.0345C31.8 40.0012 31.6633 39.9845 31.51 39.9845H31.38V39.5645H34.29V39.9845H34.16C34.0133 39.9845 33.8767 40.0012 33.75 40.0345C33.6233 40.0679 33.5233 40.1345 33.45 40.2345C33.3767 40.3345 33.34 40.4912 33.34 40.7045V45.5645C33.34 45.7712 33.3767 45.9279 33.45 46.0345C33.5233 46.1345 33.6233 46.2012 33.75 46.2345C33.8767 46.2679 34.0133 46.2845 34.16 46.2845H34.29V46.7045H31.38ZM36.3519 46.7045V46.2845H36.4819C36.6352 46.2845 36.7719 46.2679 36.8919 46.2345C37.0185 46.2012 37.1185 46.1345 37.1919 46.0345C37.2652 45.9279 37.3019 45.7712 37.3019 45.5645V40.6645C37.3019 40.4645 37.2619 40.3179 37.1819 40.2245C37.1085 40.1245 37.0085 40.0612 36.8819 40.0345C36.7619 40.0012 36.6285 39.9845 36.4819 39.9845H36.3519V39.5645H38.1819L41.7619 45.0945V40.6645C41.7619 40.4645 41.7219 40.3179 41.6419 40.2245C41.5685 40.1245 41.4685 40.0612 41.3419 40.0345C41.2219 40.0012 41.0885 39.9845 40.9419 39.9845H40.8119V39.5645H43.3219V39.9845H43.1919C43.0452 39.9845 42.9085 40.0012 42.7819 40.0345C42.6552 40.0679 42.5552 40.1345 42.4819 40.2345C42.4085 40.3345 42.3719 40.4912 42.3719 40.7045V46.7045H41.6619L37.9119 40.9445V45.5645C37.9119 45.7712 37.9485 45.9279 38.0219 46.0345C38.0952 46.1345 38.1952 46.2012 38.3219 46.2345C38.4485 46.2679 38.5852 46.2845 38.7319 46.2845H38.8619V46.7045H36.3519ZM47.3688 46.8045C47.0422 46.8045 46.7522 46.7712 46.4988 46.7045C46.2522 46.6379 46.0455 46.5412 45.8788 46.4145C45.7122 46.2879 45.5855 46.1379 45.4988 45.9645C45.4188 45.7912 45.3788 45.6012 45.3788 45.3945C45.3788 45.2612 45.4055 45.1445 45.4588 45.0445C45.5188 44.9445 45.6022 44.8679 45.7088 44.8145C45.8155 44.7545 45.9455 44.7245 46.0988 44.7245C46.1122 44.9979 46.1655 45.2579 46.2588 45.5045C46.3522 45.7445 46.4955 45.9412 46.6888 46.0945C46.8822 46.2412 47.1355 46.3145 47.4488 46.3145C47.8955 46.3145 48.2455 46.2079 48.4988 45.9945C48.7522 45.7745 48.8788 45.4612 48.8788 45.0545C48.8788 44.8079 48.8288 44.6012 48.7288 44.4345C48.6355 44.2612 48.4755 44.1012 48.2488 43.9545C48.0288 43.8079 47.7222 43.6545 47.3288 43.4945C47.0222 43.3679 46.7522 43.2312 46.5188 43.0845C46.2855 42.9379 46.0922 42.7779 45.9388 42.6045C45.7922 42.4312 45.6788 42.2345 45.5988 42.0145C45.5255 41.7945 45.4888 41.5479 45.4888 41.2745C45.4888 40.8945 45.5822 40.5712 45.7688 40.3045C45.9622 40.0312 46.2222 39.8245 46.5488 39.6845C46.8822 39.5379 47.2588 39.4645 47.6788 39.4645C48.0788 39.4645 48.4155 39.5179 48.6888 39.6245C48.9688 39.7312 49.1822 39.8712 49.3288 40.0445C49.4755 40.2112 49.5488 40.3912 49.5488 40.5845C49.5488 40.7979 49.4755 40.9612 49.3288 41.0745C49.1888 41.1812 48.9988 41.2345 48.7588 41.2345C48.7588 41.0279 48.7222 40.8279 48.6488 40.6345C48.5822 40.4412 48.4655 40.2812 48.2988 40.1545C48.1388 40.0279 47.9188 39.9645 47.6388 39.9645C47.3855 39.9645 47.1655 40.0112 46.9788 40.1045C46.7988 40.1979 46.6588 40.3312 46.5588 40.5045C46.4655 40.6712 46.4188 40.8712 46.4188 41.1045C46.4188 41.3712 46.4655 41.5979 46.5588 41.7845C46.6588 41.9645 46.8222 42.1279 47.0488 42.2745C47.2755 42.4145 47.5822 42.5645 47.9688 42.7245C48.3622 42.8845 48.6955 43.0612 48.9688 43.2545C49.2488 43.4412 49.4622 43.6579 49.6088 43.9045C49.7555 44.1512 49.8288 44.4479 49.8288 44.7945C49.8288 45.2212 49.7288 45.5845 49.5288 45.8845C49.3288 46.1779 49.0422 46.4045 48.6688 46.5645C48.3022 46.7245 47.8688 46.8045 47.3688 46.8045ZM52.0183 46.7045V46.2845H52.1483C52.3016 46.2845 52.4383 46.2679 52.5583 46.2345C52.6849 46.2012 52.7849 46.1345 52.8583 46.0345C52.9316 45.9279 52.9683 45.7712 52.9683 45.5645V40.7045C52.9683 40.4912 52.9316 40.3345 52.8583 40.2345C52.7849 40.1345 52.6849 40.0679 52.5583 40.0345C52.4383 40.0012 52.3016 39.9845 52.1483 39.9845H52.0183V39.5645H54.9283V39.9845H54.7983C54.6516 39.9845 54.5149 40.0012 54.3883 40.0345C54.2616 40.0679 54.1616 40.1345 54.0883 40.2345C54.0149 40.3345 53.9783 40.4912 53.9783 40.7045V45.5645C53.9783 45.7712 54.0149 45.9279 54.0883 46.0345C54.1616 46.1345 54.2616 46.2012 54.3883 46.2345C54.5149 46.2679 54.6516 46.2845 54.7983 46.2845H54.9283V46.7045H52.0183ZM60.6202 46.8045C59.8468 46.8045 59.2035 46.6512 58.6902 46.3445C58.1835 46.0379 57.8035 45.6112 57.5502 45.0645C57.3035 44.5112 57.1802 43.8645 57.1802 43.1245C57.1802 42.4045 57.3102 41.7712 57.5702 41.2245C57.8368 40.6712 58.2302 40.2412 58.7502 39.9345C59.2702 39.6212 59.9135 39.4645 60.6802 39.4645C61.1735 39.4645 61.5835 39.5145 61.9102 39.6145C62.2368 39.7079 62.4802 39.8412 62.6402 40.0145C62.8068 40.1812 62.8902 40.3712 62.8902 40.5845C62.8902 40.7979 62.8002 40.9679 62.6202 41.0945C62.4402 41.2212 62.2202 41.2845 61.9602 41.2845C61.9602 41.0779 61.9168 40.8779 61.8302 40.6845C61.7502 40.4845 61.6135 40.3212 61.4202 40.1945C61.2268 40.0612 60.9668 39.9945 60.6402 39.9945C60.0735 39.9945 59.6168 40.1179 59.2702 40.3645C58.9302 40.6045 58.6802 40.9579 58.5202 41.4245C58.3668 41.8912 58.2902 42.4579 58.2902 43.1245C58.2902 43.7912 58.3702 44.3579 58.5302 44.8245C58.6968 45.2845 58.9602 45.6345 59.3202 45.8745C59.6868 46.1145 60.1735 46.2345 60.7802 46.2345C60.9735 46.2345 61.1602 46.2245 61.3402 46.2045C61.5202 46.1845 61.6802 46.1545 61.8202 46.1145V44.5045C61.8202 44.3045 61.7802 44.1579 61.7002 44.0645C61.6268 43.9645 61.5268 43.9012 61.4002 43.8745C61.2802 43.8412 61.1468 43.8245 61.0002 43.8245H60.9602V43.4045H63.5602V43.8245H63.5202C63.3935 43.8245 63.2768 43.8412 63.1702 43.8745C63.0702 43.9079 62.9868 43.9745 62.9202 44.0745C62.8602 44.1745 62.8302 44.3312 62.8302 44.5445V46.3445C62.4968 46.4979 62.1535 46.6145 61.8002 46.6945C61.4468 46.7679 61.0535 46.8045 60.6202 46.8045ZM65.4288 46.7045V46.2845H65.5588C65.7122 46.2845 65.8488 46.2679 65.9688 46.2345C66.0955 46.2012 66.1955 46.1345 66.2688 46.0345C66.3422 45.9279 66.3788 45.7712 66.3788 45.5645V40.6645C66.3788 40.4645 66.3388 40.3179 66.2588 40.2245C66.1855 40.1245 66.0855 40.0612 65.9588 40.0345C65.8388 40.0012 65.7055 39.9845 65.5588 39.9845H65.4288V39.5645H68.3388V39.9845H68.2088C68.0622 39.9845 67.9255 40.0012 67.7988 40.0345C67.6722 40.0679 67.5722 40.1345 67.4988 40.2345C67.4255 40.3345 67.3888 40.4912 67.3888 40.7045V42.7245H70.6388V40.7045C70.6388 40.4912 70.6022 40.3345 70.5288 40.2345C70.4555 40.1345 70.3555 40.0679 70.2288 40.0345C70.1088 40.0012 69.9722 39.9845 69.8188 39.9845H69.6888V39.5645H72.5988V39.9845H72.4688C72.3222 39.9845 72.1855 40.0012 72.0588 40.0345C71.9322 40.0679 71.8322 40.1345 71.7588 40.2345C71.6855 40.3345 71.6488 40.4912 71.6488 40.7045V45.6145C71.6488 45.8079 71.6855 45.9545 71.7588 46.0545C71.8388 46.1479 71.9388 46.2112 72.0588 46.2445C72.1855 46.2712 72.3222 46.2845 72.4688 46.2845H72.5988V46.7045H69.6888V46.2845H69.8188C69.9722 46.2845 70.1088 46.2679 70.2288 46.2345C70.3555 46.2012 70.4555 46.1345 70.5288 46.0345C70.6022 45.9279 70.6388 45.7712 70.6388 45.5645V43.2245H67.3888V45.5645C67.3888 45.7712 67.4255 45.9279 67.4988 46.0345C67.5722 46.1345 67.6722 46.2012 67.7988 46.2345C67.9255 46.2679 68.0622 46.2845 68.2088 46.2845H68.3388V46.7045H65.4288ZM75.7785 46.7045V46.2845H76.0085C76.1552 46.2845 76.2885 46.2712 76.4085 46.2445C76.5352 46.2112 76.6352 46.1479 76.7085 46.0545C76.7885 45.9545 76.8285 45.8079 76.8285 45.6145V40.0645H75.8685C75.6752 40.0645 75.5218 40.1045 75.4085 40.1845C75.2952 40.2579 75.2118 40.3579 75.1585 40.4845C75.1052 40.6045 75.0685 40.7379 75.0485 40.8845L74.9985 41.3145H74.4785L74.5285 39.5645H80.1585L80.2085 41.3145H79.6885L79.6385 40.8845C79.6252 40.7379 79.5885 40.6045 79.5285 40.4845C79.4752 40.3579 79.3918 40.2579 79.2785 40.1845C79.1652 40.1045 79.0085 40.0645 78.8085 40.0645H77.8385V45.5645C77.8385 45.7712 77.8752 45.9279 77.9485 46.0345C78.0218 46.1345 78.1218 46.2012 78.2485 46.2345C78.3752 46.2679 78.5118 46.2845 78.6585 46.2845H78.8885V46.7045H75.7785ZM85.989 46.7045V46.2845H86.119C86.2723 46.2845 86.409 46.2679 86.529 46.2345C86.6557 46.2012 86.7557 46.1345 86.829 46.0345C86.9023 45.9279 86.939 45.7712 86.939 45.5645V40.6645C86.939 40.4645 86.899 40.3179 86.819 40.2245C86.7457 40.1245 86.6457 40.0612 86.519 40.0345C86.399 40.0012 86.2657 39.9845 86.119 39.9845H85.989V39.5645H87.819L91.399 45.0945V40.6645C91.399 40.4645 91.359 40.3179 91.279 40.2245C91.2057 40.1245 91.1057 40.0612 90.979 40.0345C90.859 40.0012 90.7257 39.9845 90.579 39.9845H90.449V39.5645H92.959V39.9845H92.829C92.6823 39.9845 92.5457 40.0012 92.419 40.0345C92.2923 40.0679 92.1923 40.1345 92.119 40.2345C92.0457 40.3345 92.009 40.4912 92.009 40.7045V46.7045H91.299L87.549 40.9445V45.5645C87.549 45.7712 87.5857 45.9279 87.659 46.0345C87.7323 46.1345 87.8323 46.2012 87.959 46.2345C88.0857 46.2679 88.2223 46.2845 88.369 46.2845H88.499V46.7045H85.989ZM98.2459 46.8045C97.5393 46.8045 96.9526 46.6512 96.4859 46.3445C96.0193 46.0379 95.6693 45.6079 95.4359 45.0545C95.2093 44.5012 95.0959 43.8545 95.0959 43.1145C95.0959 42.3745 95.2093 41.7312 95.4359 41.1845C95.6693 40.6379 96.0193 40.2145 96.4859 39.9145C96.9593 39.6079 97.5493 39.4545 98.2559 39.4545C98.9293 39.4545 99.4959 39.6079 99.9559 39.9145C100.423 40.2145 100.776 40.6412 101.016 41.1945C101.263 41.7412 101.386 42.3845 101.386 43.1245C101.386 43.8645 101.263 44.5112 101.016 45.0645C100.776 45.6112 100.423 46.0379 99.9559 46.3445C99.4893 46.6512 98.9193 46.8045 98.2459 46.8045ZM98.2459 46.2645C98.6193 46.2645 98.9326 46.1945 99.1859 46.0545C99.4459 45.9145 99.6559 45.7112 99.8159 45.4445C99.9759 45.1712 100.093 44.8412 100.166 44.4545C100.239 44.0612 100.276 43.6179 100.276 43.1245C100.276 42.6312 100.239 42.1912 100.166 41.8045C100.093 41.4179 99.9759 41.0912 99.8159 40.8245C99.6626 40.5512 99.4559 40.3445 99.1959 40.2045C98.9426 40.0645 98.6293 39.9945 98.2559 39.9945C97.8826 39.9945 97.5659 40.0645 97.3059 40.2045C97.0459 40.3445 96.8326 40.5512 96.6659 40.8245C96.5059 41.0912 96.3893 41.4179 96.3159 41.8045C96.2426 42.1912 96.2059 42.6312 96.2059 43.1245C96.2059 43.6179 96.2426 44.0612 96.3159 44.4545C96.3893 44.8412 96.5059 45.1712 96.6659 45.4445C96.8326 45.7112 97.0459 45.9145 97.3059 46.0545C97.5659 46.1945 97.8793 46.2645 98.2459 46.2645ZM103.638 46.7045V46.2845H103.768C103.921 46.2845 104.058 46.2679 104.178 46.2345C104.304 46.2012 104.404 46.1345 104.478 46.0345C104.551 45.9279 104.588 45.7712 104.588 45.5645V40.6645C104.588 40.4645 104.548 40.3179 104.468 40.2245C104.394 40.1245 104.294 40.0612 104.168 40.0345C104.048 40.0012 103.914 39.9845 103.768 39.9845H103.638V39.5645H106.698C107.384 39.5645 107.971 39.7045 108.458 39.9845C108.944 40.2579 109.314 40.6612 109.568 41.1945C109.828 41.7212 109.958 42.3645 109.958 43.1245C109.958 43.8512 109.834 44.4845 109.588 45.0245C109.348 45.5579 108.988 45.9712 108.508 46.2645C108.028 46.5579 107.424 46.7045 106.698 46.7045H103.638ZM106.468 46.1945C107.001 46.1945 107.441 46.0779 107.788 45.8445C108.141 45.6045 108.404 45.2579 108.578 44.8045C108.758 44.3445 108.848 43.7845 108.848 43.1245C108.848 42.4645 108.758 41.9079 108.578 41.4545C108.404 41.0012 108.141 40.6579 107.788 40.4245C107.441 40.1845 107.004 40.0645 106.478 40.0645H105.598V46.1945H106.468ZM112.203 46.7045V46.2845H112.333C112.48 46.2845 112.613 46.2712 112.733 46.2445C112.86 46.2112 112.96 46.1479 113.033 46.0545C113.113 45.9545 113.153 45.8079 113.153 45.6145V40.7045C113.153 40.4912 113.117 40.3345 113.043 40.2345C112.97 40.1345 112.87 40.0679 112.743 40.0345C112.623 40.0012 112.487 39.9845 112.333 39.9845H112.203V39.5645H117.243L117.293 41.3145H116.773L116.723 40.8845C116.71 40.7379 116.67 40.6045 116.603 40.4845C116.543 40.3579 116.45 40.2579 116.323 40.1845C116.203 40.1045 116.043 40.0645 115.843 40.0645H114.163V42.7245H116.573V43.2145H114.163V46.2045H116.093C116.307 46.2045 116.477 46.1679 116.603 46.0945C116.737 46.0145 116.837 45.9145 116.903 45.7945C116.977 45.6679 117.023 45.5312 117.043 45.3845L117.113 44.9545H117.633L117.563 46.7045H112.203Z" fill="black"/>
<defs>
<linearGradient id="paint0_linear_8_2" x1="72" y1="0" x2="0" y2="72" gradientUnits="userSpaceOnUse">
<stop stop-color="#F55D77"/>
<stop offset="1" stop-color="#F08FF1"/>
</linearGradient>
</defs>
</svg>
